<?xml version="1.0" standalone="no"?>
<!DOCTYPE svg PUBLIC "-//W3C//DTD SVG 20010904//EN"
 "http://www.w3.org/TR/2001/REC-SVG-20010904/DTD/svg10.dtd">
<svg version="1.0" xmlns="http://www.w3.org/2000/svg"
 width="500.000000pt" height="500.000000pt" viewBox="0 0 500.000000 500.000000"
 preserveAspectRatio="xMidYMid meet">
<metadata>
Created by potrace 1.11, written by Peter Selinger 2001-2013
</metadata>
<g transform="translate(0.000000,500.000000) scale(0.100000,-0.100000)"
fill="#000000" stroke="none">
<path d="M1100 4750 l0 -50 -50 0 -50 0 0 -50 0 -50 -50 0 -50 0 0 -50 0 -50
-50 0 -50 0 0 -50 0 -50 -50 0 -50 0 0 -100 0 -100 -50 0 -50 0 0 -100 0 -100
-50 0 -50 0 0 -100 0 -100 -50 0 -50 0 0 -200 0 -200 -50 0 -50 0 0 -950 0
-950 50 0 50 0 0 -150 0 -150 50 0 50 0 0 -100 0 -100 50 0 50 0 0 -50 0 -50
50 0 50 0 0 -50 0 -50 50 0 50 0 0 -50 0 -50 50 0 50 0 0 -50 0 -50 50 0 50 0
0 -50 0 -50 50 0 50 0 0 -50 0 -50 100 0 100 0 0 -50 0 -50 150 0 150 0 0 -50
0 -50 850 0 850 0 0 50 0 50 150 0 150 0 0 50 0 50 100 0 100 0 0 50 0 50 50
0 50 0 0 50 0 50 50 0 50 0 0 50 0 50 50 0 50 0 0 50 0 50 50 0 50 0 0 50 0
50 50 0 50 0 0 50 0 50 50 0 50 0 0 50 0 50 50 0 50 0 0 100 0 100 50 0 50 0
0 100 0 100 50 0 50 0 0 150 0 150 50 0 50 0 0 600 0 600 -50 0 -50 0 0 100 0
100 -50 0 -50 0 0 100 0 100 -50 0 -50 0 0 50 0 50 -50 0 -50 0 0 50 0 50 -50
0 -50 0 0 -200 0 -200 -50 0 -50 0 0 -100 0 -100 -50 0 -50 0 0 -50 0 -50 -50
0 -50 0 0 -50 0 -50 -50 0 -50 0 0 -50 0 -50 -50 0 -50 0 0 -50 0 -50 -100 0
-100 0 0 -50 0 -50 -100 0 -100 0 0 -50 0 -50 -100 0 -100 0 0 -50 0 -50 -100
0 -100 0 0 -50 0 -50 -100 0 -100 0 0 -50 0 -50 -50 0 -50 0 0 150 0 150 50 0
50 0 0 100 0 100 50 0 50 0 0 100 0 100 50 0 50 0 0 50 0 50 50 0 50 0 0 50 0
50 50 0 50 0 0 50 0 50 50 0 50 0 0 50 0 50 50 0 50 0 0 50 0 50 50 0 50 0 0
50 0 50 50 0 50 0 0 50 0 50 50 0 50 0 0 50 0 50 50 0 50 0 0 150 0 150 -50 0
-50 0 0 50 0 50 -600 0 -600 0 0 -50 0 -50 -200 0 -200 0 0 50 0 50 -50 0 -50
0 0 100 0 100 -50 0 -50 0 0 250 0 250 -100 0 -100 0 0 -50 0 -50 -50 0 -50 0
0 -50 0 -50 -50 0 -50 0 0 -50 0 -50 -50 0 -50 0 0 -50 0 -50 -50 0 -50 0 0
250 0 250 -100 0 -100 0 0 -50z"/>
</g>
</svg>
